<svg width="189" height="91" viewBox="0 0 189 91" fill="none" xmlns="http://www.w3.org/2000/svg">
<path d="M39.9181 67.3252C32.5862 67.3252 26.8835 72.504 26.8835 79.1626C26.8835 85.8211 32.5862 91 39.9181 91C47.25 91 52.9526 85.8211 52.9526 79.1626C52.9526 72.504 47.25 67.3252 39.9181 67.3252ZM117.31 0H110.793V14.4268H135.233L117.31 0ZM0.814581 81.3821H17.1077C17.1077 81.3821 17.9224 59.187 41.5474 59.187C59.0625 59.187 61.9138 81.3821 61.9138 81.3821H102.647V0H0L0.814581 81.3821ZM154.785 67.3252C147.453 67.3252 141.75 72.504 141.75 79.1626C141.75 85.8211 147.453 91 154.785 91C162.117 91 167.819 85.8211 167.819 79.1626C167.819 72.504 161.709 67.3252 154.785 67.3252ZM139.306 18.4959H110.793V81.3821H135.233C135.233 81.3821 131.974 62.8862 155.599 62.8862C173.522 62.8862 173.114 81.3821 173.114 81.3821H188.186L189 53.6382L139.306 18.4959ZM135.233 66.5853H118.94V59.187H135.233V66.5853ZM133.603 53.2683L117.31 44.3902V23.6748H133.603L175.966 53.2683H133.603Z" fill="white" fill-opacity="0.4"/>
</svg>
